<?xml version="1.0" encoding="utf-8"?>
<!DOCTYPE svg PUBLIC "-//W3C//DTD SVG 1.1//EN" "http://www.w3.org/Graphics/SVG/1.1/DTD/svg11.dtd">
<svg xmlns="http://www.w3.org/2000/svg" xmlns:xlink="http://www.w3.org/1999/xlink" width="512px" version="1.1" height="512px" viewBox="0 0 64 64" enable-background="new 0 0 64 64">
  <g>
    <g fill="#1D1D1B">
      <path d="m13.883-.055h-7.945c-3.309,0-6,2.691-6,6v7.941c0,3.309 2.691,6 6,6h7.945c3.309,0 6-2.691 6-6v-7.941c0-3.308-2.692-6-6-6zm2,13.942c0,1.103-0.898,2-2,2h-7.945c-1.102,0-2-0.897-2-2v-7.942c0-1.103 0.898-2 2-2h7.945c1.102,0 2,0.897 2,2v7.942z" fill="#FFFFFF"/>
      <path d="m57.938-.062h-7.945c-3.309,0-6,2.691-6,6v7.943c0,3.309 2.691,6 6,6h7.945c3.309,0 6-2.691 6-6v-7.943c0-3.309-2.692-6-6-6zm2,13.943c0,1.103-0.896,2-2,2h-7.945c-1.102,0-2-0.897-2-2v-7.943c0-1.103 0.898-2 2-2h7.945c1.104,0 2,0.897 2,2v7.943z" fill="#FFFFFF"/>
      <path d="m35.9-.062h-7.945c-3.309,0-6,2.691-6,6v7.943c0,3.309 2.691,6 6,6h7.945c3.309,0 6-2.691 6-6v-7.943c0-3.309-2.691-6-6-6zm2,13.943c0,1.103-0.896,2-2,2h-7.945c-1.104,0-2-0.897-2-2v-7.943c0-1.103 0.896-2 2-2h7.945c1.104,0 2,0.897 2,2v7.943z" fill="#FFFFFF"/>
      <path d="m13.883,21.975h-7.945c-3.309,0-6,2.691-6,6v7.941c0,3.309 2.691,6 6,6h7.945c3.309,0 6-2.691 6-6v-7.941c0-3.309-2.692-6-6-6zm2,13.941c0,1.103-0.898,2-2,2h-7.945c-1.102,0-2-0.897-2-2v-7.941c0-1.103 0.898-2 2-2h7.945c1.102,0 2,0.897 2,2v7.941z" fill="#FFFFFF"/>
      <path d="m57.938,21.967h-7.945c-3.309,0-6,2.691-6,6v7.943c0,3.309 2.691,6 6,6h7.945c3.309,0 6-2.691 6-6v-7.943c0-3.309-2.692-6-6-6zm2,13.943c0,1.103-0.896,2-2,2h-7.945c-1.102,0-2-0.897-2-2v-7.943c0-1.103 0.898-2 2-2h7.945c1.104,0 2,0.897 2,2v7.943z" fill="#FFFFFF"/>
      <path d="m35.9,21.967h-7.945c-3.309,0-6,2.691-6,6v7.943c0,3.309 2.691,6 6,6h7.945c3.309,0 6-2.691 6-6v-7.943c0-3.309-2.691-6-6-6zm2,13.943c0,1.103-0.896,2-2,2h-7.945c-1.104,0-2-0.897-2-2v-7.943c0-1.103 0.896-2 2-2h7.945c1.104,0 2,0.897 2,2v7.943z" fill="#FFFFFF"/>
      <path d="m13.883,43.994h-7.945c-3.309,0-6,2.691-6,6v7.943c0,3.309 2.691,6 6,6h7.945c3.309,0 6-2.691 6-6v-7.943c0-3.308-2.692-6-6-6zm2,13.944c0,1.103-0.898,2-2,2h-7.945c-1.102,0-2-0.897-2-2v-7.943c0-1.103 0.898-2 2-2h7.945c1.102,0 2,0.897 2,2v7.943z" fill="#FFFFFF"/>
      <path d="m57.938,43.986h-7.945c-3.309,0-6,2.691-6,6v7.943c0,3.309 2.691,6 6,6h7.945c3.309,0 6-2.691 6-6v-7.943c0-3.308-2.692-6-6-6zm2,13.944c0,1.103-0.896,2-2,2h-7.945c-1.102,0-2-0.897-2-2v-7.943c0-1.103 0.898-2 2-2h7.945c1.104,0 2,0.897 2,2v7.943z" fill="#FFFFFF"/>
      <path d="m35.9,43.986h-7.945c-3.309,0-6,2.691-6,6v7.943c0,3.309 2.691,6 6,6h7.945c3.309,0 6-2.691 6-6v-7.943c0-3.308-2.691-6-6-6zm2,13.944c0,1.103-0.896,2-2,2h-7.945c-1.104,0-2-0.897-2-2v-7.943c0-1.103 0.896-2 2-2h7.945c1.104,0 2,0.897 2,2v7.943z" fill="#FFFFFF"/>
    </g>
  </g>
</svg>
