<?xml version="1.0" encoding="iso-8859-1"?>
<!-- Generator: Adobe Illustrator 19.0.0, SVG Export Plug-In . SVG Version: 6.00 Build 0)  -->
<svg version="1.1" id="Layer_1" xmlns="http://www.w3.org/2000/svg" xmlns:xlink="http://www.w3.org/1999/xlink" x="0px" y="0px"
	 viewBox="0 0 490.9 490.9" style="enable-background:new 0 0 490.9 490.9;" xml:space="preserve">
<g>
	<g>
		<path d="M198,307l116.7-85.5c7.6-4.9,14.1-21.4,0-33.4L198,102.6c-16.7-12.6-33.5,3.3-32.3,15.6v172
			C165.7,310,188.8,313.8,198,307z M207.4,159l61.5,45.9l-61.5,44.8V159z"/>
		<path d="M470,0.6H20.8C9.3,0.6,0,10,0,21.4v364.8C0,397.7,9.4,407,20.8,407H469c11.5,0,20.8-8.3,21.9-19.8V21.4
			C490.9,9.9,481.5,0.6,470,0.6z M449.2,366.4H40.6V41.2h408.6V366.4L449.2,366.4z"/>
		<path d="M403.3,448.7H86.5c-11.5,0-20.8,9.4-20.8,20.8s9.4,20.8,20.8,20.8h316.8c11.5,0,20.8-9.4,20.8-20.8
			S414.8,448.7,403.3,448.7z"/>
	</g>
</g>
<g>
</g>
<g>
</g>
<g>
</g>
<g>
</g>
<g>
</g>
<g>
</g>
<g>
</g>
<g>
</g>
<g>
</g>
<g>
</g>
<g>
</g>
<g>
</g>
<g>
</g>
<g>
</g>
<g>
</g>
</svg>
